<svg width="204" height="27" viewBox="0 0 204 27" fill="none" xmlns="http://www.w3.org/2000/svg">
<path d="M39.3703 2C36.4634 2 33.2947 3.51655 29.9454 6.50368C28.3565 7.91913 26.9842 9.43567 25.9551 10.6489C25.9551 10.6489 25.9551 10.6489 25.9641 10.6581V10.6489C25.9641 10.6489 27.5891 12.4504 29.3856 14.3805C30.3516 13.2133 31.7419 11.6232 33.3398 10.1894C36.319 7.5331 38.2599 6.97243 39.3703 6.97243C43.5502 6.97243 46.9446 10.3456 46.9446 14.4908C46.9446 18.6085 43.5412 21.9816 39.3703 22.0092C39.1808 22.0092 38.937 21.9816 38.6301 21.9173C39.8488 22.4504 41.1578 22.8364 42.4037 22.8364C50.0592 22.8364 51.5578 17.7537 51.6571 17.3861C51.8828 16.4577 52.0002 15.4835 52.0002 14.4816C52.0002 7.60663 46.3307 2 39.3703 2Z" fill="url(#paint0_linear_1808_121)"/>
<path d="M12.6298 26.9999C15.5368 26.9999 18.7055 25.4834 22.0548 22.4962C23.6437 21.0808 25.0159 19.5642 26.0451 18.351C26.0451 18.351 26.0451 18.351 26.0361 18.3418V18.351C26.0361 18.351 24.4111 16.5495 22.6145 14.6194C21.6486 15.7867 20.2583 17.3767 18.6604 18.8106C15.6812 21.4668 13.7403 22.0275 12.6298 22.0275C8.44999 22.0183 5.05555 18.6451 5.05555 14.4999C5.05555 10.3822 8.45901 7.00908 12.6298 6.9815C12.8194 6.9815 13.0632 7.00908 13.3701 7.07342C12.1514 6.54033 10.8423 6.1543 9.59651 6.1543C1.94097 6.1543 0.451388 11.237 0.343055 11.5955C0.117361 12.533 0 13.4981 0 14.4999C0 21.3933 5.66944 26.9999 12.6298 26.9999Z" fill="url(#paint1_linear_1808_121)"/>
<path d="M42.3856 22.7261C38.4675 22.625 34.396 19.4816 33.5654 18.7004C31.4168 16.6783 26.4606 11.2096 26.0724 10.7776C22.4432 6.63236 17.5231 2 12.63 2H12.621H12.612C6.67172 2.02757 1.67937 6.12684 0.343262 11.5956C0.442567 11.2371 2.40159 6.05332 9.58769 6.23714C13.5057 6.33824 17.5953 9.52759 18.4349 10.3088C20.5835 12.3309 25.5398 17.7997 25.9279 18.2316C29.5571 22.3677 34.4772 27 39.3703 27H39.3793H39.3883C45.3286 26.9725 50.33 22.8732 51.6571 17.4044C51.5487 17.7629 49.5807 22.9008 42.3856 22.7261Z" fill="#29ABE2"/>
<path d="M61.0301 23.827C61.3063 23.827 61.5301 23.6032 61.5301 23.327V16.6622C61.5301 16.386 61.3063 16.1622 61.0301 16.1622H60.5C60.2239 16.1622 60 16.386 60 16.6622V23.327C60 23.6032 60.2239 23.827 60.5 23.827H61.0301Z" fill="#C3C3C4"/>
<path d="M71.2018 23.827C71.478 23.827 71.7018 23.6032 71.7018 23.327V16.6622C71.7018 16.386 71.478 16.1622 71.2018 16.1622H70.6936C70.4174 16.1622 70.1936 16.386 70.1936 16.6622V21.2324L67.264 16.6256C67.0805 16.337 66.7622 16.1622 66.4202 16.1622H65.5895C65.3133 16.1622 65.0895 16.386 65.0895 16.6622V23.327C65.0895 23.6032 65.3133 23.827 65.5895 23.827H66.0978C66.3739 23.827 66.5978 23.6032 66.5978 23.327V18.3892L69.9693 23.5987C70.0614 23.7411 70.2195 23.827 70.389 23.827H71.2018Z" fill="#C3C3C4"/>
<path d="M80.4535 17.5784C80.7297 17.5784 80.9535 17.3545 80.9535 17.0784V16.6622C80.9535 16.386 80.7297 16.1622 80.4535 16.1622H75.0379C74.7617 16.1622 74.5379 16.386 74.5379 16.6622V17.0784C74.5379 17.3545 74.7617 17.5784 75.0379 17.5784H76.9861V23.327C76.9861 23.6032 77.21 23.827 77.4861 23.827H78.0053C78.2814 23.827 78.5053 23.6032 78.5053 23.327V17.5784H80.4535Z" fill="#C3C3C4"/>
<path d="M88.1385 23.827C88.4146 23.827 88.6385 23.6032 88.6385 23.327V22.9216C88.6385 22.6455 88.4146 22.4216 88.1385 22.4216H85.2941V20.6486H87.8215C88.0977 20.6486 88.3215 20.4248 88.3215 20.1486V19.8189C88.3215 19.5428 88.0977 19.3189 87.8215 19.3189H85.2941V17.5676H88.1385C88.4146 17.5676 88.6385 17.3437 88.6385 17.0676V16.6622C88.6385 16.386 88.4146 16.1622 88.1385 16.1622H84.2858C84.0096 16.1622 83.7858 16.386 83.7858 16.6622V23.327C83.7858 23.6032 84.0096 23.827 84.2858 23.827H88.1385Z" fill="#C3C3C4"/>
<path d="M95.5496 23.5559C95.6353 23.7224 95.8069 23.827 95.9941 23.827H96.5415C96.9184 23.827 97.1598 23.4259 96.9833 23.0929L95.711 20.6919C96.7275 20.4 97.3614 19.5892 97.3614 18.5189C97.3614 17.1892 96.3996 16.1622 94.8913 16.1622H92.3638C92.0877 16.1622 91.8638 16.386 91.8638 16.6622V23.327C91.8638 23.6032 92.0877 23.827 92.3638 23.827H92.883C93.1592 23.827 93.383 23.6032 93.383 23.327V20.8757H94.1699L95.5496 23.5559ZM93.383 19.5892V17.4595H94.6071C95.3722 17.4595 95.8203 17.8811 95.8203 18.5297C95.8203 19.1568 95.3722 19.5892 94.6071 19.5892H93.383Z" fill="#C3C3C4"/>
<path d="M106.609 23.827C106.885 23.827 107.109 23.6032 107.109 23.327V16.6622C107.109 16.386 106.885 16.1622 106.609 16.1622H106.101C105.825 16.1622 105.601 16.386 105.601 16.6622V21.2324L102.671 16.6256C102.488 16.337 102.17 16.1622 101.828 16.1622H100.997C100.721 16.1622 100.497 16.386 100.497 16.6622V23.327C100.497 23.6032 100.721 23.827 100.997 23.827H101.505C101.781 23.827 102.005 23.6032 102.005 23.327V18.3892L105.377 23.5987C105.469 23.7411 105.627 23.827 105.796 23.827H106.609Z" fill="#C3C3C4"/>
<path d="M115.03 23.827C115.306 23.827 115.53 23.6032 115.53 23.327V22.9216C115.53 22.6455 115.306 22.4216 115.03 22.4216H112.186V20.6486H114.713C114.989 20.6486 115.213 20.4248 115.213 20.1486V19.8189C115.213 19.5428 114.989 19.3189 114.713 19.3189H112.186V17.5676H115.03C115.306 17.5676 115.53 17.3437 115.53 17.0676V16.6622C115.53 16.386 115.306 16.1622 115.03 16.1622H111.178C110.901 16.1622 110.678 16.386 110.678 16.6622V23.327C110.678 23.6032 110.901 23.827 111.178 23.827H115.03Z" fill="#C3C3C4"/>
<path d="M123.939 17.5784C124.215 17.5784 124.439 17.3545 124.439 17.0784V16.6622C124.439 16.386 124.215 16.1622 123.939 16.1622H118.523C118.247 16.1622 118.023 16.386 118.023 16.6622V17.0784C118.023 17.3545 118.247 17.5784 118.523 17.5784H120.471V23.327C120.471 23.6032 120.695 23.827 120.971 23.827H121.491C121.767 23.827 121.991 23.6032 121.991 23.327V17.5784H123.939Z" fill="#C3C3C4"/>
<path d="M134.823 23.9892C136.998 23.9892 138.113 22.5622 138.408 21.3838L136.998 20.9622C136.79 21.6757 136.146 22.5297 134.823 22.5297C133.577 22.5297 132.419 21.6324 132.419 20C132.419 18.2595 133.643 17.4378 134.801 17.4378C136.146 17.4378 136.747 18.2486 136.932 18.9838L138.353 18.5405C138.047 17.2973 136.943 16 134.801 16C132.725 16 130.856 17.5568 130.856 20C130.856 22.4432 132.659 23.9892 134.823 23.9892Z" fill="#C3C3C4"/>
<path d="M142.428 19.9892C142.428 18.2595 143.653 17.4378 144.844 17.4378C146.046 17.4378 147.27 18.2595 147.27 19.9892C147.27 21.7189 146.046 22.5405 144.844 22.5405C143.653 22.5405 142.428 21.7189 142.428 19.9892ZM140.866 20C140.866 22.4649 142.745 23.9892 144.844 23.9892C146.953 23.9892 148.833 22.4649 148.833 20C148.833 17.5243 146.953 16 144.844 16C142.745 16 140.866 17.5243 140.866 20Z" fill="#C3C3C4"/>
<path d="M160.077 23.827C160.354 23.827 160.577 23.6032 160.577 23.327V16.6622C160.577 16.386 160.354 16.1622 160.077 16.1622H158.858C158.655 16.1622 158.472 16.2846 158.395 16.4722L156.249 21.6973L154.05 16.4683C153.972 16.2828 153.79 16.1622 153.589 16.1622H152.432C152.156 16.1622 151.932 16.386 151.932 16.6622V23.327C151.932 23.6032 152.156 23.827 152.432 23.827H152.875C153.151 23.827 153.375 23.6032 153.375 23.327V18.4973L155.476 23.52C155.554 23.706 155.736 23.827 155.937 23.827H156.528C156.73 23.827 156.912 23.7053 156.989 23.5187L159.091 18.4541V23.327C159.091 23.6032 159.315 23.827 159.591 23.827H160.077Z" fill="#C3C3C4"/>
<path d="M165.66 19.6541V17.4595H166.851C167.605 17.4595 168.064 17.8811 168.064 18.5622C168.064 19.2216 167.605 19.6541 166.851 19.6541H165.66ZM167.037 20.9405C168.567 20.9405 169.584 19.9459 169.584 18.5514C169.584 17.1676 168.567 16.1622 167.037 16.1622H164.641C164.365 16.1622 164.141 16.386 164.141 16.6622V23.327C164.141 23.6032 164.365 23.827 164.641 23.827H165.149C165.425 23.827 165.649 23.6032 165.649 23.327V20.9405H167.037Z" fill="#C3C3C4"/>
<path d="M175.414 24C177.076 24 178.398 22.9946 178.398 21.1135V16.6622C178.398 16.386 178.174 16.1622 177.898 16.1622H177.39C177.114 16.1622 176.89 16.386 176.89 16.6622V21.0054C176.89 22.0108 176.332 22.5405 175.414 22.5405C174.518 22.5405 173.95 22.0108 173.95 21.0054V16.6622C173.95 16.386 173.726 16.1622 173.45 16.1622H172.941C172.665 16.1622 172.441 16.386 172.441 16.6622V21.1135C172.441 22.9946 173.764 24 175.414 24Z" fill="#C3C3C4"/>
<path d="M187.081 17.5784C187.357 17.5784 187.581 17.3545 187.581 17.0784V16.6622C187.581 16.386 187.357 16.1622 187.081 16.1622H181.666C181.389 16.1622 181.166 16.386 181.166 16.6622V17.0784C181.166 17.3545 181.389 17.5784 181.666 17.5784H183.614V23.327C183.614 23.6032 183.838 23.827 184.114 23.827H184.633C184.909 23.827 185.133 23.6032 185.133 23.327V17.5784H187.081Z" fill="#C3C3C4"/>
<path d="M194.766 23.827C195.042 23.827 195.266 23.6032 195.266 23.327V22.9216C195.266 22.6455 195.042 22.4216 194.766 22.4216H191.922V20.6486H194.449C194.725 20.6486 194.949 20.4248 194.949 20.1486V19.8189C194.949 19.5428 194.725 19.3189 194.449 19.3189H191.922V17.5676H194.766C195.042 17.5676 195.266 17.3437 195.266 17.0676V16.6622C195.266 16.386 195.042 16.1622 194.766 16.1622H190.913C190.637 16.1622 190.413 16.386 190.413 16.6622V23.327C190.413 23.6032 190.637 23.827 190.913 23.827H194.766Z" fill="#C3C3C4"/>
<path d="M202.177 23.5559C202.263 23.7224 202.435 23.827 202.622 23.827H203.169C203.546 23.827 203.787 23.4259 203.611 23.0929L202.339 20.6919C203.355 20.4 203.989 19.5892 203.989 18.5189C203.989 17.1892 203.027 16.1622 201.519 16.1622H198.492V23.327C198.492 23.6032 198.715 23.827 198.992 23.827H199.511C199.787 23.827 200.011 23.6032 200.011 23.327V20.8757H200.798L202.177 23.5559ZM200.011 19.5892V17.4595H201.235C202 17.4595 202.448 17.8811 202.448 18.5297C202.448 19.1568 202 19.5892 201.235 19.5892H200.011Z" fill="#C3C3C4"/>
<path d="M61.002 11V7.634H64.423V6.787H61.002V4.048H64.764V3.201H60.078V11H61.002ZM69.2964 10.285V10.329C69.2964 10.593 69.3184 10.879 69.3514 11H70.1984C70.1654 10.791 70.1324 10.417 70.1324 10.01V5.731H69.2524V8.91C69.2524 9.746 68.7794 10.362 67.9104 10.362C66.9754 10.362 66.6124 9.669 66.6124 8.899V5.731H65.7324V9.042C65.7324 10.208 66.4364 11.154 67.7124 11.154C68.4054 11.154 69.0434 10.824 69.2964 10.285ZM72.7263 11V3.047H71.8463V11H72.7263ZM75.3259 11V3.047H74.4459V11H75.3259ZM78.3875 13.09L81.7645 5.731H80.8075L79.1685 9.46L77.4305 5.731H76.4185L78.6845 10.373L77.4085 13.09H78.3875ZM87.6047 5.577C86.0867 5.577 84.9647 6.743 84.9647 8.36C84.9647 9.988 86.0867 11.154 87.6047 11.154C89.1227 11.154 90.2447 9.988 90.2447 8.36C90.2447 6.743 89.1227 5.577 87.6047 5.577ZM87.6047 6.369C88.5507 6.369 89.3647 7.084 89.3647 8.36C89.3647 9.647 88.5507 10.362 87.6047 10.362C86.6587 10.362 85.8447 9.647 85.8447 8.36C85.8447 7.084 86.6587 6.369 87.6047 6.369ZM92.4812 7.898C92.4812 7.073 92.9542 6.369 93.8012 6.369C94.7582 6.369 95.1102 6.985 95.1102 7.755V11H95.9902V7.623C95.9902 6.479 95.3742 5.577 94.1092 5.577C93.4162 5.577 92.8002 5.907 92.4592 6.523V5.731H91.6012V11H92.4812V7.898ZM100.465 8.228V7.458H97.5283V8.228H100.465ZM104.319 6.369C105.265 6.369 105.694 7.018 105.837 7.579L106.629 7.238C106.409 6.402 105.672 5.577 104.319 5.577C102.834 5.577 101.712 6.721 101.712 8.36C101.712 9.966 102.812 11.154 104.33 11.154C105.683 11.154 106.42 10.296 106.673 9.515L105.903 9.174C105.749 9.658 105.331 10.362 104.33 10.362C103.395 10.362 102.592 9.625 102.592 8.36C102.592 7.084 103.395 6.369 104.319 6.369ZM108.809 7.854C108.809 7.04 109.293 6.369 110.129 6.369C111.086 6.369 111.438 6.985 111.438 7.755V11H112.318V7.623C112.318 6.479 111.702 5.577 110.437 5.577C109.755 5.577 109.15 5.885 108.809 6.435V3.047H107.929V11H108.809V7.854ZM113.592 9.603C113.592 10.406 114.241 11.154 115.33 11.154C116.276 11.154 116.848 10.637 117.079 10.208C117.079 10.615 117.123 10.879 117.145 11H118.003C117.97 10.835 117.937 10.56 117.937 10.12V7.458C117.937 6.435 117.31 5.577 115.814 5.577C114.681 5.577 113.801 6.259 113.691 7.26L114.527 7.458C114.604 6.787 115.066 6.325 115.836 6.325C116.661 6.325 117.057 6.776 117.057 7.37C117.057 7.601 116.969 7.766 116.584 7.821L115.165 8.03C114.241 8.162 113.592 8.679 113.592 9.603ZM115.44 10.406C114.835 10.406 114.472 9.988 114.472 9.559C114.472 9.042 114.835 8.756 115.341 8.679L117.057 8.426V8.778C117.057 9.9 116.353 10.406 115.44 10.406ZM120.475 11V5.731H119.595V11H120.475ZM119.375 3.652C119.375 4.015 119.672 4.312 120.035 4.312C120.398 4.312 120.695 4.015 120.695 3.652C120.695 3.289 120.398 2.992 120.035 2.992C119.672 2.992 119.375 3.289 119.375 3.652ZM123.075 7.898C123.075 7.073 123.548 6.369 124.395 6.369C125.352 6.369 125.704 6.985 125.704 7.755V11H126.584V7.623C126.584 6.479 125.968 5.577 124.703 5.577C124.01 5.577 123.394 5.907 123.053 6.523V5.731H122.195V11H123.075V7.898Z" fill="#C3C3C4"/>
<defs>
<linearGradient id="paint0_linear_1808_121" x1="32.7958" y1="3.6484" x2="50.2866" y2="21.4386" gradientUnits="userSpaceOnUse">
<stop offset="0.21" stop-color="#F15A24"/>
<stop offset="0.6841" stop-color="#FBB03B"/>
</linearGradient>
<linearGradient id="paint1_linear_1808_121" x1="19.2044" y1="25.3515" x2="1.71361" y2="7.56137" gradientUnits="userSpaceOnUse">
<stop offset="0.21" stop-color="#ED1E79"/>
<stop offset="0.8929" stop-color="#522785"/>
</linearGradient>
</defs>
</svg>
